<svg id="Layer_1" data-name="Layer 1" xmlns="http://www.w3.org/2000/svg" viewBox="0 0 453.36 195.45"><defs><style>.cls-1{fill:#ffd40b;}.cls-2{fill:#0d0c0d;}</style></defs><polygon class="cls-1" points="51.75 0 139.26 36.53 147.63 128.62 98.03 195.45 42.06 176.82 0 112.63 51.75 0"/><path class="cls-2" d="M41.77,75,64.08,64.87C62.52,71.26,58.41,88.1,54.51,104l4.22-1.92L65.84,111l-8.16,10.31-5-.27-1.81-2c-2.59,10.53-4.55,18.48-4.74,19.08-.4,1.28-2.6,23.85-4,38.69l41.16,13.71c-.68-9.51-4.58-63.86-4.49-65.62.11-1.94,5.82-44.71,5.82-44.71L90,77.81l8.63,14.07L110.13,93l-6.64-11.49-13-3.92L118.31,65.1,127.74,62l.63-8.85-43,.18,2.49-7.8,1.89,1.12,5.1-4.87-2.53-5.06L84,38.07l0,5.08L86.2,44.5,80,53.4l-6,.1-3.68,2.15L69,48.07l4.93-3.28,1.39-8.1-9.75-2.77-4.92,5.79.14,5.2,5.54,2.67L64.73,62.2l-.31,1.23L52.26,60.07,29,69Zm26,87.64-12.37,8.94-7.64-6.45,6.85-20.92Zm2.41-27.57-6.62,10-2.08-8.21,3.2-12.48Z"/><path class="cls-2" d="M216,55.53h11.31V92.35q0,9.15-6,13.84a22.78,22.78,0,0,1-14.5,4.69q-13.09,0-18.37-9.38l9.92-5.74q2.64,4.89,8.84,4.88a9.16,9.16,0,0,0,6.43-2.13A7.93,7.93,0,0,0,216,92.35V88.78q-4,5-11.32,5a18,18,0,0,1-13.6-5.77,20.46,20.46,0,0,1,0-27.83,18,18,0,0,1,13.6-5.77q7.29,0,11.32,5ZM199.91,80.65a10.4,10.4,0,0,0,13.48,0,9.35,9.35,0,0,0,0-13,10.4,10.4,0,0,0-13.48,0,9.35,9.35,0,0,0,0,13Z"/><path class="cls-2" d="M254.35,47.92a7,7,0,1,1-9.84-9.85,7,7,0,1,1,9.84,9.85ZM243.62,94.29V55.53h11.63V94.29Z"/><path class="cls-2" d="M283.15,62.43a9.46,9.46,0,0,1,4.38-5.69,13.78,13.78,0,0,1,7.24-2V67.94a11.61,11.61,0,0,0-7.94,1.43c-2.46,1.42-3.68,3.89-3.68,7.4V94.29H271.52V55.53h11.63Z"/><path class="cls-2" d="M334.92,55.53h11.63V94.29H334.92V90.65c-2.74,3.15-6.58,4.72-11.55,4.72a17.08,17.08,0,0,1-13.09-5.93,20.71,20.71,0,0,1-5.43-14.53,20.73,20.73,0,0,1,5.43-14.53,17.11,17.11,0,0,1,13.09-5.93c5,0,8.81,1.58,11.55,4.73ZM319,81.81a10,10,0,0,0,13.34,0,9.34,9.34,0,0,0,2.55-6.9,9.36,9.36,0,0,0-2.55-6.9A10,10,0,0,0,319,68a9.36,9.36,0,0,0-2.55,6.9A9.34,9.34,0,0,0,319,81.81Z"/><path class="cls-2" d="M384.14,50.11q-7.22-.61-7.21,5.42h7.21V66.7h-7.21V94.29H365.31V66.7h-5.2V55.53h5.2q0-8.37,4.72-12.75T384.14,39Z"/><path class="cls-2" d="M405.38,79.56q2,5.43,9.3,5.43A9.6,9.6,0,0,0,422.12,82l9.3,5.35q-5.75,8-16.9,8-9.76,0-15.62-5.81a19.8,19.8,0,0,1-5.85-14.65,20,20,0,0,1,5.78-14.61q5.78-5.85,14.84-5.85a18.71,18.71,0,0,1,14.07,5.85,20.28,20.28,0,0,1,5.62,14.61,22.07,22.07,0,0,1-.47,4.65Zm-.24-8.68h16.67q-1.71-6.12-8.22-6.12Q406.86,64.76,405.14,70.88Z"/><path class="cls-2" d="M215.91,119.59h11.62v38.76H215.91V154.7q-4.11,4.74-11.55,4.73a17.13,17.13,0,0,1-13.1-5.93,22.19,22.19,0,0,1,0-29.06,17.1,17.1,0,0,1,13.1-5.93q7.44,0,11.55,4.73ZM200,145.87a10,10,0,0,0,13.33,0,10.58,10.58,0,0,0,0-13.8,10,10,0,0,0-13.33,0,10.58,10.58,0,0,0,0,13.8Z"/><path class="cls-2" d="M254.54,112a6.92,6.92,0,1,1,2.06-4.93A6.75,6.75,0,0,1,254.54,112Zm-10.73,46.37V119.59h11.63v38.76Z"/></svg>
